# xmcd
#
# Track frame offsets:
# 150
# 20807
# 43915
# 62800
# 80127
# 95165
# 116090
# 131232
# 148510
# 160100
# 171995
# 189962
# 213952
#
# Disc length: 3146 seconds
#
#
# Revision: 0
# Processed by: cddbd v1.4PL0 Copyright (c) Steve Scherf et al.
# Submitted via: FreeRIP 2.00 
#
DISCID=c50c480d
DTITLE=Elan - Alive and Inspired
DYEAR=2000
DGENRE=Blues
TTITLE0=The Lord is my shepherd
TTITLE1=Amazing Grace
TTITLE2=When peace like a river
TTITLE3=Nearer still nearer
TTITLE4=I know not why Gods wondrous grace
TTITLE5=O Happy Day
TTITLE6=Now the green blade rises
TTITLE7=Joyful Joyful
TTITLE8=Take my life that it may be
TTITLE9=O Love that will not let me go
TTITLE10=Eye upon the sparrow
TTITLE11=This little light of mine
TTITLE12=Amazing Grace V2
EXTD=
EXTT0=
EXTT1=
EXTT2=
EXTT3=
EXTT4=
EXTT5=
EXTT6=
EXTT7=
EXTT8=
EXTT9=
EXTT10=
EXTT11=
EXTT12=
PLAYORDER=
